<svg id="Layer_1" data-name="Layer 1" xmlns="http://www.w3.org/2000/svg" xmlns:xlink="http://www.w3.org/1999/xlink" viewBox="0 0 358.49 329.52"><defs><style>.cls-1{fill:none;}.cls-2{fill:#dbdbdb;}.cls-3{fill:#c7c7c7;}.cls-4{fill:#f7a9a0;}.cls-5,.cls-9{fill:#fff;}.cls-6{fill:#f8180e;}.cls-7{fill:#263238;}.cls-8{fill:#455a64;}.cls-9{isolation:isolate;opacity:0.2;}.cls-10{fill:#a6a6a6;}.cls-11{fill:#ebebeb;}.cls-12{clip-path:url(#clip-path);}.cls-13{clip-path:url(#clip-path-2);}.cls-14{fill:#eb9481;}</style><clipPath id="clip-path"><path class="cls-1" d="M250.19,108.7v-.2a24.47,24.47,0,0,0-1.1-7.1c-.5-2.9-1.2-5.7-2-8.6A19.85,19.85,0,0,0,238,80.7l-.9-.6c-.1,0-.1-.1-.2-.1l-.2-.1c-5.7-3.1-12.1-1.7-17,.6a16.18,16.18,0,0,0-6.1,4.9,22,22,0,0,0-4.4,7.9,23.46,23.46,0,0,0-3.4,25.2,21.86,21.86,0,0,0,.3,3.6c0,.2.2.1.2,0v-2.5a14,14,0,0,0,1,1.6v1.2c0,.6.9,1.2,2.3,1.8a23.41,23.41,0,0,0,33.1,1.6l2.1-2.1a33.76,33.76,0,0,0,4.1-2.4c.6-.5.8-3,.6-6.5.2-.8.4-1.7.6-2.5.3,2.6.5,5.3.7,7.9a.15.15,0,0,0,.3,0C250.89,116.3,250.59,112.5,250.19,108.7Zm-7.8-23.4a5.5,5.5,0,0,0-.7-.9A24.34,24.34,0,0,1,247,94.9c.3,1,.5,2.1.7,3.1a15.92,15.92,0,0,0-1.3-2.2h0A37.19,37.19,0,0,0,242.39,85.3Z"/></clipPath><clipPath id="clip-path-2"><path class="cls-1" d="M260.19,31.6a23.4,23.4,0,1,1-35.3-20.2c1.1-3.5,3.9-6.8,10.2-8.4,12.3-3.1,15,5.8,15.3,6.8h0a35.8,35.8,0,0,1,1.1,3.5A23.49,23.49,0,0,1,260.19,31.6Z"/></clipPath></defs><g id="freepik--Puff--inject-348"><path class="cls-2" d="M41.69,326.1l164,.7c39.9-31.3,44-77.7,15.5-105.8-17.2-17-39.1-13.6-59.9-16.3h0c-7.2-.9-14.4-2.6-21.1-6.2-21.4-11.3-33.5-38-51.5-60.4-2.2-2.8-4.6-5.6-7.1-8.2-14.8-15.8-44.3-16.4-59.8,5.9C-17.41,192.4.59,276.6,41.69,326.1Z"/><path class="cls-3" d="M38.09,196.7c4.3,67.3,82,92.4,130.5,72.2,42.2-17.5,28.4-57.5-7.2-64.2h-.1c-7.2-.9-14.4-2.6-21.1-6.2-21.4-11.3-33.5-38-51.5-60.4C61.79,124.2,34.89,147.5,38.09,196.7Z"/></g><g id="freepik--Character--inject-348"><path class="cls-4" d="M174.39,321.6c-2.3-.8-53.6-41.8-54.5-44.6-.4-1.1,5.2-8.9,12.1-18.1,1.5-2,3.1-4,4.7-6.1,10.4-13.5,21.7-27.6,21.7-27.6l34.4,27.3-22.6,26.8-5,5.9s12.6,24.5,13.4,27.7S176.59,322.4,174.39,321.6Z"/><path class="cls-5" d="M174.39,321.6c-2.3-.8-53.6-41.8-54.5-44.6-.4-1.3,7.8-12.6,16.8-24.3l33.4,26.6-5,5.9s12.6,24.5,13.4,27.7S176.59,322.4,174.39,321.6Z"/><path class="cls-6" d="M174.39,321.6c-2.3-.8-53.6-41.8-54.5-44.6-.4-1.1,5.2-8.9,12.1-18.1l33.1,26.3s12.6,24.5,13.4,27.7S176.59,322.4,174.39,321.6Z"/><path class="cls-7" d="M175.29,318.9c-8.4-7.1-43.1-34.9-52-41.2-.1,0-.1,0,0,.1,8.2,7.2,43.1,34.7,51.9,41.3C175.39,319.2,175.39,319.1,175.29,318.9Z"/><path class="cls-7" d="M176.59,308.3a8.9,8.9,0,0,0-6.8-2,8.77,8.77,0,0,0-5.6,3.1l.1.1a10.24,10.24,0,0,1,12.2-1h.1A.14.14,0,0,0,176.59,308.3Z"/><path class="cls-7" d="M167.79,288.7c-3.4-2.8-8.4-4.8-12.8-3.7-.2,0-.1.3,0,.3a59.29,59.29,0,0,1,12.4,3.8.25.25,0,0,0,.4-.1A.19.19,0,0,0,167.79,288.7Z"/><path class="cls-7" d="M169.59,291.8c-3.4-2.8-8.4-4.8-12.8-3.7-.2,0-.1.3,0,.3a54.94,54.94,0,0,1,12.5,3.9c.1.1.3,0,.4-.1S169.69,291.9,169.59,291.8Z"/><path class="cls-7" d="M171.39,295c-3.4-2.8-8.4-4.8-12.8-3.7-.2,0-.1.3,0,.3a59.29,59.29,0,0,1,12.4,3.8.25.25,0,0,0,.4-.1c.2,0,.1-.2,0-.3Z"/><path class="cls-7" d="M173.19,298.2c-3.4-2.8-8.4-4.8-12.8-3.7-.2,0-.1.3,0,.3a59.29,59.29,0,0,1,12.4,3.8.25.25,0,0,0,.4-.1C173.29,298.3,173.39,298.2,173.19,298.2Z"/><path class="cls-7" d="M132,271.3c-3.9-3.1-8.6,2.9-4.8,6S135.89,274.4,132,271.3Z"/><path class="cls-7" d="M178.79,282.5c-.6-2.8-3.9-3.2-6.2-2.5a23.11,23.11,0,0,0-10.2,6.3c-.1,0-.1.1,0,.2h0a.57.57,0,0,0,.2.7c.1,0,.1,0,.2.1,3.8.3,7.8,1,11.6.1C176.69,286.8,179.39,285.2,178.79,282.5Zm-10.1,3.9c-1.9-.1-3.7-.3-5.6-.3,2-1.2,3.9-2.5,6-3.5a28.8,28.8,0,0,1,3.1-1.3c1.7-.5,7.3-.7,4.7,3.3-1.4,2.2-5.9,1.9-8.2,1.8Z"/><path class="cls-7" d="M152.89,280.7c2.6,2.9,6.4,4.5,9.7,6.4a.57.57,0,0,0,.7-.2c0-.1,0-.1.1-.2s.1,0,.1-.1a24.05,24.05,0,0,0-4.9-10.9c-1.5-1.8-4.5-3.4-6.6-1.3S151.39,279,152.89,280.7Zm-.5-3.6c0-4.8,4.6-1.5,5.7-.1a27.5,27.5,0,0,1,1.9,2.8,51.77,51.77,0,0,1,3,6.3c-1.6-1-3.2-1.9-4.8-2.9-1.9-1.2-5.8-3.5-5.8-6.1Z"/><path class="cls-8" d="M227.39,199.9c-.1,5.1-5.2,14.5-12.2,25-13.5,20.2-34.1,44.4-39.2,50.4l-1.2,1.3-36.4-28,.4-.5,32.1-42-95.7-.6,36.3-28.2s2.9,1.7,9.1.8c21.1-3.1,68.7-9.9,79.9-9.5C215,169.2,227.69,183.3,227.39,199.9Z"/><path class="cls-7" d="M215.19,224.9c-13.5,20.2-34.1,44.4-39.2,50.4l-37.2-27.2,32.1-42Z"/><path class="cls-7" d="M182.39,190.4a43.45,43.45,0,0,0-3.3,4.2l-3.4,4.4h0c.2-.4.4-.9.6-1.3.7-1.5,1.3-3,2.1-4.4.1-.1-.1-.2-.1-.1a36.56,36.56,0,0,0-2.6,4.2,20,20,0,0,0-1,2.1,6.12,6.12,0,0,0-.5,1.2c-.1.2-.1.4-.2.6l-1.5,2.1c-1.1,1.6-2,3.2-3.1,4.8-.1.1.1.2.1.1,1.1-1.5,2.3-2.8,3.5-4.3s2.2-3,3.3-4.5,2.1-3,3.1-4.5a46.3,46.3,0,0,0,3.1-4.6c0,.1,0,0-.1,0Z"/><path class="cls-4" d="M88.29,137.2c6.8,8.3,31.4,32.2,46.8,35.7,8.5,1.9,49.4,7.7,55,2.5,6.6-6,3.5-28.5-1.7-28.7-15.9-.6-45.4,2.5-52.8.9-3.3-.7-21-12.1-39.9-21.2C88.59,122.9,83.69,131.5,88.29,137.2Z"/><path class="cls-6" d="M182.09,144.8s-.1.9-.2,2.4a2.49,2.49,0,0,1-.1.8q-.15,1.35-.3,3v.4c-.1.9-.2,1.9-.3,2.9,0,.2-.1.5-.1.8-.1,1-.2,1.9-.3,3v.4l-.3,3c0,.2-.1.5-.1.8l-.3,3a.6.6,0,0,1-.1.4l-.3,3-.1.8c-.1.6-.1,1.2-.2,1.9a4.1,4.1,0,0,0-.1,1.1v.4c-.1.6-.1,1.1-.2,1.6s-.1.9-.2,1.3-.1.5-.1.8c-.2,1.4-.4,2.4-.5,3,0,.1-.1.3-.1.4l-.1.1-.5-.1-1.4-.1-.8-.1-1.6-.2-1.3-.1h-.4l-2.9-.3-.8-.1-2.9-.3h-.4l-2.9-.3-.8-.1-2.9-.3h-.4l-2.9-.3-.8-.1-2.9-.3h-.4l-2.9-.4-.8-.1-.6-.1-2.3-.3h-.4l-2.9-.4H141l-.6-.1-2.9-.4-.4-.1c-1.1-.2-2-.3-2.9-.5l-.8-.1a28.43,28.43,0,0,1-2.9-.6l-.4-.1-.2-.1a24.43,24.43,0,0,1-2.4-1l-.4-.2-.4-.2-.4-.2c-.9-.5-1.9-1.2-2.9-1.9-.1-.1-.3-.2-.4-.3l-.8-.5-1.1-.8-1.1-.9-.8-.6-1.9-1.5-.5-.4-.6-.5-.4-.3-.5-.4c-.7-.6-1.4-1.1-2.1-1.7l-.3-.3-.6-.5-.2-.2a35.84,35.84,0,0,1-2.9-2.6l-.2-.2-.2-.1-.3-.2-2.7-2.4-.6-.6-.1-.1-.7-.6c-.8-.7-1.5-1.4-2.2-2.1l-.9-1-.5-.5-.4-.4-2-1.9-.8-.7-.4-.4-.8-.8-1.8-1.7-.4-.4-.9-.9-.4-.4-1.6-1.7-.8-.8-.6-.5-.6-.6-.1-.1a10,10,0,0,1-1.6-2c-.1-.2-.3-.4-.4-.6a1.38,1.38,0,0,0-.3-.4.76.76,0,0,1-.2-.4,10.76,10.76,0,0,1-1.3-2.9,2.35,2.35,0,0,1-.2-.8,7.19,7.19,0,0,1-.3-2.9v-.4a5.69,5.69,0,0,1,1.1-2.9c.2-.3.5-.5.7-.8.2-.1.3-.3.5-.4a.76.76,0,0,1,.4-.2,5.92,5.92,0,0,1,2.9-.7h.8a21.3,21.3,0,0,1,2.5.3h0l.5.1c.1,0,.3.1.4.1a15.55,15.55,0,0,1,2.3.8l.6.3.8.3.4.2c.5.2,1,.5,1.6.8l1,.5.4.2,2.7,1.4.3.1.5.3c.1,0,.2.1.3.2,1,.5,2,1.1,2.9,1.6l.4.2,1.7,1,1.2.7.1.1.6.4,2.9,1.7.4.2,1.2.7.7.4,1,.6.8.5,2.9,1.7.4.2h0l1.3.8,1.6.9.8.4,2.9,1.6h.1l.4.2.3.1c1,.5,1.9,1,2.7,1.4l.8.4a14.76,14.76,0,0,0,2.9,1.2h.1l.2.1c.1,0,.3.1.4.1a10.45,10.45,0,0,0,2.5,0h.8c.9,0,1.9,0,2.9-.1h1.6l1.8-.1h.8l2.9-.2h.4l2.9-.2h.8l2.9-.2h.4l2.9-.2h.8l2.9-.2h.4l2.9-.2h.8l2.9-.2h.4l2.9-.2.8-.1,2.9-.2h.4Z"/><path class="cls-9" d="M87.59,125.4v12.8c-.1-.2-.3-.4-.4-.6v-12C87.39,125.5,87.49,125.5,87.59,125.4Zm6.7-.2v19.9l.4.4V125.3a.6.6,0,0,0-.4-.1Zm-3.7-.5v16.7l.8.8V124.7Zm7,1.6v22l.8.7V126.6Zm3.7,1.8v23.7l.4.4V128.3Zm7.1,3.8v26.3l.2.1.2.2V132.1Zm-3.2-1.8-.5-.3v25.1h.1l.6.6V130.2a.31.31,0,0,1-.2-.1Zm6.7,3.7-.1-.1V161l.2.2.6.5V134.2Zm3.5,2v28.3l.4.3V136Zm7.5,4.3-.4-.2v29.7c.1.1.3.2.4.3V140.1Zm-4.1-2.3v29.1l.8.6V138.2Zm7,4V172h.4l.4.2v-30Zm3.7,2.1v29.6l.4.1V144.1Zm7.2,3.3h-.1v27.6l.4.1V147.2Zm-3.8-1.6v28.6l.8.1V145.9Zm7,1.7v28h.8v-28Zm3.7-.1v28.6h.4V147.2Zm7-.3v29.8h.4V146.9Zm-3.7.2v29.1l.8.1V147.1Zm7-.4V177l.8.1V146.6Zm3.7-.2v31h.4v-31Zm7-.5v32.2h.4V146Zm-3.7.3v31.5l.8.1V146.2Zm7.1-.5v32.7l.8.1V145.8Zm3.7-.3v33.4h.4V145.5Zm7-.5v29c.1-.5.1-1.1.2-1.6V172c0-.4.1-.7.1-1.1V145Zm-3.7.3v33.9l.8.1V145.2Zm-1.6,33.8,1.6.2.8.1,1.4.1h.6a.6.6,0,0,0,.1-.4Zm-33-3.7h.2l2.9.4h.4l2.3.3h32.4c0-.2.1-.5.1-.8Zm-14.3-3.4.4.2.4.2h52.2V172Zm-9.8-7,.5.4h63a.6.6,0,0,1,.1-.4Zm4.3,3.3,1.1.8h57.8l.1-.8Zm-8.8-7,.6.5.3.3h67.6c0-.2.1-.5.1-.8ZM108,158l.3.2.2.1h72.2v-.4H108Zm-7.7-7.1.4.4h80.6v-.4Zm3.6,3.4.7.6v.1H181c0-.3.1-.5.1-.8Zm41.2-7.1h-1.6c-1.1,0-2.1.1-2.9.1h-3.3a.6.6,0,0,1-.4-.1v-.1H96.49l.8.8h84.5c0-.3.1-.5.1-.8Zm-15.3-3.1-.4-.2H93l.4.4h36.8ZM117,136.8H86.69a.76.76,0,0,1,.2.4h30.8Zm5.9,3.4H89.29l.1.1.6.6h34.2Zm-11.2-6.4-1.2-.7H85.19c.1.3.1.5.2.8h26.5Zm-7-3.9-.3-.1H84.89v.4h20.3Zm-6.3-3.3-.8-.3L97,126H86.69a2.7,2.7,0,0,0-.7.8h12.8Z"/><path class="cls-7" d="M114.89,163.8c-9.5-7.9-20.4-18.4-25.5-23.5-7-7.1-6.3-17.6,4.4-15.2h0C96.69,129.9,109.39,153.5,114.89,163.8Z"/><path class="cls-7" d="M175.49,147.9c0-.1-.1-.1-.1,0-.5,2.3-.6,4.7-.9,7s-.5,4.9-.7,7.3c-.4,4.8-.9,9.7-1.1,14.6,0,.1.1.1.2.1a.1.1,0,0,0,.1-.1c.7-4.8,1.1-9.6,1.6-14.5l.6-7.2Q175.49,151.5,175.49,147.9Z"/><path class="cls-6" d="M117.39,199.4a4.28,4.28,0,0,1-1.6.5l-.4.1-1,.2-1.9.3h-.3l-.5.1-2.9.5h-.4c-.9.1-1.9.3-2.9.4l-.8.1-2.9.4h-.4l-2.9.4-.8.1-2.9.4h-.4l-1.2.1-1.8.2h-.3a.6.6,0,0,0-.4.1l-2.9.4h-.4l-2.5.3h-.4l-.8.1-2.9.4h-.4l-2.9.3-.8.1-2.9.3h-.4l-2.9.3a2.2,2.2,0,0,0-.8.1l-2.9.3h-.9l-2.4.3-.8.1-2.9.3h-.5c-1.1.1-2,.2-2.8.3l-.8.1-.8.1h-.7a.6.6,0,0,1-.1-.4c0-.5,0-1.5.1-2.9a2.49,2.49,0,0,1,.1-.8q.15-1.35.3-3v-.4q.15-1.35.3-3l.1-.8c.1-.9.2-1.9.4-3v-.4c.1-.5.1-1,.2-1.6l.2-1.4c0-.2.1-.5.1-.8.1-1,.3-1.9.4-3l.1-.4V185c.1-.9.3-1.8.4-2.8,0-.2.1-.5.1-.8.2-1,.3-2,.4-3l.1-.4c.2-1,.3-2,.5-3,0-.2.1-.5.1-.8.2-1,.3-2,.5-3a.6.6,0,0,1,.1-.4c.2-1,.3-2,.5-3,0-.2.1-.5.1-.8s.1-.5.1-.8l.4-2.1V164l.1-.3.6-3a3.09,3.09,0,0,1,.2-.8l.6-3,.1-.4.6-3c.1-.3.1-.5.2-.8a24.6,24.6,0,0,1,.7-2.9.37.37,0,0,1,.1-.3c.1-.1,0,0,0-.1.2-1,.5-2,.7-3l.1-.2a4.33,4.33,0,0,1,.1-.5,24.54,24.54,0,0,1,.8-2.9c0-.1.1-.3.1-.4.3-1,.6-2,.8-2.9l.2-.8.9-2.7c0-.1.1-.2.1-.3s.1-.3.1-.4a.76.76,0,0,1,.2-.4c.2-.5.3-1,.5-1.4a4.87,4.87,0,0,0,.4-1.1,6.89,6.89,0,0,1,.3-.8,16.41,16.41,0,0,1,1.6-2.9h0a4,4,0,0,1,.3-.4c.2-.2.3-.4.5-.6l.3-.3.5-.5c.7-.6,1.3-1.1,1.9-1.6l.2-.2.4-.3.4-.3a28.51,28.51,0,0,1,2.6-1.7l.9-.3.2-.1a3.51,3.51,0,0,1,1.4-.6,7.37,7.37,0,0,1,1.4-.4h.1l.3-.1c1-.2,2-.3,2.9-.4h.8a28,28,0,0,1,2.9,0h.4a23.28,23.28,0,0,1,2.9.2l.8.1a6.75,6.75,0,0,1,1.4.2l.2.1a2.19,2.19,0,0,1,.5.3c.3.3.6.5.9.8l.4.4c.4.5.8,1,1.3,1.7a2.18,2.18,0,0,1,.5.8,10.81,10.81,0,0,1,1.1,1.8c.2.4.5.8.7,1.2l.1.1.1.3c.5.9,1,1.9,1.5,2.9a5.9,5.9,0,0,0,.4.8l.9,2.1c.1.3.2.5.3.8l.1.2.1.2c.3.9.6,1.9.9,2.8v.1c.1.2.1.5.2.8a26.52,26.52,0,0,0,.8,2.9c0,.1.1.3.1.4.2.9.5,1.9.8,2.9a1.85,1.85,0,0,0,.2.7v.1c.2.9.5,1.8.8,2.8v.1c0,.1.1.3.1.4l.8,2.9c.1.2.1.5.2.8.2,1,.5,1.9.8,3,0,.1.1.3.1.4.2,1,.5,2,.8,3l.2.7v.1a5.73,5.73,0,0,0,.4,1.4l.4,1.5c0,.1.1.3.1.4.2,1,.5,2,.8,3,.1.2.1.5.2.8.3,1,.5,2,.8,3,0,.1.1.3.1.4.2.8.4,1.6.6,2.3l.1.6c.1.2.1.5.2.8l.4,1.6c.1.5.2.9.3,1.3,0,.1.1.3.1.4l.7,3c.1.3.1.5.2.8.2,1,.5,2,.7,3,0,.1.1.3.1.4l.7,3h0l.2.7c.1.3.1.6.2,1,.2.7.3,1.4.5,2l.1.4a19.85,19.85,0,0,1,.6,3,2.2,2.2,0,0,1,.1.8A8.08,8.08,0,0,0,117.39,199.4Z"/><path class="cls-9" d="M59.39,165.3v41.9H59V167.5l.4-2.2Zm-3.3,20.8-.1.4c-.1,1-.3,2-.4,3,0,.3-.1.5-.1.8l-.2,1.4v16l.8-.1V186.1Zm7-38.2c-.2,1-.5,2-.7,3h0v56l.8-.1V147.7Zm3.2-11.1c0,.1-.1.3-.1.4s-.1.2-.1.3v69.1h.4V136.4C66.39,136.5,66.39,136.6,66.29,136.8Zm6.8-10.2v79.2h.4V126.4Zm-3.4,3.1a1.38,1.38,0,0,0-.3.4v76.1c.2,0,.5-.1.8-.1v-77a2.65,2.65,0,0,0-.5.6Zm6.7-5.4v81.1l.8-.1V123.8Zm3.9-1.6h-.1v82.2h.4V122.6Zm6.9-.5v81.9h.4V122.2Zm-3.7.1v82.2l.8-.1V122.2Zm7,.1v81.3a.6.6,0,0,0,.4-.1h.3V122.4Zm3.7,1.5v79.3h.4V124.4Zm7.5,12.9c-.1-.3-.2-.5-.3-.8v66.3h.4l-.1-65.5Zm-3.4-7c-.2-.4-.5-.8-.7-1.2v74.2l.8-.1-.1-72.9Zm6.4,18.2h0v53.8l.8-.1V150.8c-.3-1-.6-2-.8-2.8Zm3.7,14.1h0v39.2h.4V163.6a15.46,15.46,0,0,0-.4-1.5Zm7.2,28.2-.2-.7v10.5l.4-.1v-8.7a3,3,0,0,0-.2-1Zm-3.5-14.1c-.1-.2-.1-.5-.2-.8l-.1-.6v25.9l.5-.1h.3V177.8Zm-58.4,31.1a.6.6,0,0,0,.1.4h1.5v-.1l.8-.1c.8-.1,1.7-.1,2.8-.3h-5.2Zm.2-3.7a2.2,2.2,0,0,1-.1.8h30.9l2.5-.3h.4l2.9-.4a.6.6,0,0,0,.4-.1Zm.4-3.4v.4h58.2l1.9-.3Zm62-7H55.09v.4h61.3Zm.7,3.3H54.69l-.1.8h62.6a3.09,3.09,0,0,0-.2-.8Zm-1.6-7H55.59c0,.3-.1.5-.1.8h60.1Zm-.8-3.3H56.09l-.1.4h58.7c0-.2-.1-.3-.1-.4Zm-1.8-7H57.09l-.1.4h55.9c0-.3,0-.4-.1-.4Zm.9,3.3h-57c0,.3-.1.5-.1.8H114a2,2,0,0,1-.3-.8Zm-1.8-7H57.79c0,.3-.1.5-.1.8h54.5a2.71,2.71,0,0,1-.3-.8Zm-.9-3.4H58.29a.6.6,0,0,1-.1.4h52.9c0-.2,0-.3-.1-.4Zm-1.8-7H59.49l-.1.3v.1h49.9a1,1,0,0,0-.1-.4Zm.8,3.3H58.89c0,.2-.1.5-.1.8h51.5a3.39,3.39,0,0,0-.3-.8Zm-1.6-6.3-.2-.7h-48c-.1.2-.1.5-.2.8l48.4-.1Zm-1.1-4H60.89l-.1.4h46.7a4.33,4.33,0,0,0-.1-.5Zm-1.8-7.1H62.39v.1a.37.37,0,0,1-.1.3h43.3a.75.75,0,0,0-.1-.5Zm.8,3.3H61.59a2.35,2.35,0,0,1-.2.8h45.1c-.1-.4-.1-.6-.2-.9Zm-1.6-6.3c-.1-.2-.1-.5-.2-.7H63.29a4.33,4.33,0,0,1-.1.5l-.1.2h41.6c.1,0,.1,0,0-.1Zm-1-4H64.19c0,.1-.1.3-.1.4h39.7c0-.3-.1-.4-.1-.6Zm-1.9-6.8v-.4H66.29c0,.1-.1.3-.1.4Zm.9,3.1H65.19l-.2.8h37.9a6.37,6.37,0,0,0-.2-.9Zm-2.6-7H67.79a6.89,6.89,0,0,0-.3.8h33a6.89,6.89,0,0,1-.4-1Zm-1.7-3.3-.1-.1H69.69a1.38,1.38,0,0,0-.3.4h29.1Zm-5.5-7.1-.2-.1H80.09a5.73,5.73,0,0,0-1.4.4h14.7c-.2-.2-.3-.4-.5-.5Zm3.1,3.3H74l-.4.3-.4.3c-.1.1-.2.1-.2.2h23.5c-.2-.5-.4-.7-.5-1Z"/><path class="cls-7" d="M93.09,203.3c-9.4,1.2-19.8,2.4-27.5,3.3L67,135a16.54,16.54,0,0,1,3.5-6.1l.5-.5Z"/><path class="cls-7" d="M106.09,193.3c-.5-2.2-1-4.4-1.4-6.7-1-4.4-2-8.9-3-13.3-2.1-8.9-4.2-17.9-6.6-26.7-1.3-5-2.6-9.9-3.9-14.9,0,0-.1-.1-.1,0h0c2.3,8.8,4.3,17.8,6.4,26.7s4.1,17.7,6.1,26.6l1.6,7.5c.6,2.5,1,5.1,1.7,7.6.1.3.6.2.5-.1A52.77,52.77,0,0,0,106.09,193.3Z"/><path class="cls-4" d="M91.09,134c-3.7.5-9.4-5.6-11.4-10.3-.1-.3.6-3.5,1.4-7.4.4-2.4.9-5.1,1.1-7.5,0-.5,1.7.6,1.7.6l3.1,1.1,10.3,3.6a37.45,37.45,0,0,0-2.4,9.3v1.2C95.09,126.4,94.69,133.5,91.09,134Z"/><path class="cls-7" d="M95,124.2v.2a8.6,8.6,0,0,1-1.6-.1C83,123.1,83,109.8,83,109.8l4.1.6,10.3,3.6a37.45,37.45,0,0,0-2.4,9.3A1.39,1.39,0,0,0,95,124.2Z"/><path class="cls-4" d="M84.09,89.1c-2.8,5-3.2,21.2-.1,25.5,4.5,6.2,13.5,8.6,19.2,2.8,5.5-5.6,5.7-26.7,2-30.7C99.89,80.6,88.19,81.6,84.09,89.1Z"/><path class="cls-7" d="M97.49,102.5h0c-.1,1.2-.3,2.4-1.3,2.8v.1C97.49,105.2,97.69,103.5,97.49,102.5Z"/><path class="cls-7" d="M96.59,101.3c-1.8-.2-2,3.3-.4,3.5S98.09,101.4,96.59,101.3Z"/><path class="cls-7" d="M103.79,103.1l.1.1c-.1,1.1,0,2.3.9,2.8v.1C103.59,105.8,103.49,104.1,103.79,103.1Z"/><path class="cls-7" d="M104.89,102c1.8,0,1.6,3.5,0,3.5S103.39,102,104.89,102Z"/><path class="cls-7" d="M95.29,99.6a7.37,7.37,0,0,0,1.4-.4,2.09,2.09,0,0,0,1.3-.7.63.63,0,0,0-.1-.9,1.7,1.7,0,0,0-1.8-.3,2.27,2.27,0,0,0-1.6,1.1.89.89,0,0,0,.2,1.1A1.27,1.27,0,0,0,95.29,99.6Z"/><path class="cls-7" d="M106.39,100.3a7.84,7.84,0,0,1-1.4-.5,2.73,2.73,0,0,1-1.3-.7.74.74,0,0,1,.1-.9,1.83,1.83,0,0,1,1.9-.2,3.09,3.09,0,0,1,1.6,1.1.8.8,0,0,1-.3,1.1C106.69,100.4,106.49,100.4,106.39,100.3Z"/><path class="cls-7" d="M96.29,112.1a1.6,1.6,0,0,0,.9.7,2.54,2.54,0,0,0,1.2-.2m0,0a1.47,1.47,0,0,1-1.4.5,1.21,1.21,0,0,1-.8-1,.1.1,0,0,1,.1-.1Z"/><path class="cls-7" d="M97.19,109.3a3.43,3.43,0,0,0,2.4,1.8,2.88,2.88,0,0,0,1.3.1h.5a.22.22,0,0,0,.2-.2h0v-.1h0v-.1c.1-.8.1-2.1.1-2.1.3.2,1.8,1,1.8.5a60.73,60.73,0,0,0-.6-11.3c0-.1,0-.1-.1-.1s-.1,0-.1.1c-.2,3.5.3,7,.1,10.5a8.65,8.65,0,0,0-1.7-.7,27.75,27.75,0,0,0,0,2.9h0a5.14,5.14,0,0,1-3.7-1.5C97.19,109.1,97.19,109.2,97.19,109.3Z"/><path class="cls-7" d="M106,92.1c-5.6,3.2-12.3-2.9-12.3-2.9a5.57,5.57,0,0,1-6.1,3.1s-1.8,8.8-4.1,8.6c-3.6-.3-3.7-12.6-2.3-14.9a6.33,6.33,0,0,1,4.4-2.6,5.9,5.9,0,0,1,2.7-3.3c2.6-1.7,10.8,1.6,10.8,1.6a7.81,7.81,0,0,1,2.4-2.7,2.23,2.23,0,0,1,3.1.5.1.1,0,0,0,.1.1,5.8,5.8,0,0,0-1,2.1c-.6,2.6,1.5,2.7,1.7.4a3.61,3.61,0,0,0-.6-2.5c1.2-1.5,2.9-1.8,3.9-.9C110.39,80.2,110.69,89.4,106,92.1Z"/><path class="cls-4" d="M84.79,102.4s-2.6-5.7-5.1-4.9-1.2,8.6,1.2,10.2a2.76,2.76,0,0,0,3.9-.7.1.1,0,0,1,.1-.1Z"/><path class="cls-7" d="M80.09,99.8h0c1.8,1.2,2.4,3.1,2.8,5.1a1.55,1.55,0,0,0-2-.9.35.35,0,0,0-.2.1c-.1,0,0,.1,0,.1a1.92,1.92,0,0,1,1.8.9,4.92,4.92,0,0,1,.6,1.7c.1.2.4.2.3-.1h0C83.89,104.2,82.69,100.5,80.09,99.8Z"/><path class="cls-6" d="M95,124.4l-3.4,8.4L80,121.6l-3.1,3.8s11.6,17.9,11.6,17.1l3.5-7.9,5.6,5.3-.8-13.7Z"/><path class="cls-7" d="M97.59,133.1c-.2-2.2-.4-4.5-.7-6.8,0,0-.1-.1-.1,0h0c-.4,2.2.5,10.8.5,12.9h0c-.2-.2-5.1-4.6-5.2-4.6a67.63,67.63,0,0,0-3.5,7.6c-1.8-2.9-9.6-14.1-11.7-16.8h-.1v.1c1.6,3,11.6,17.8,11.8,17.8a79.14,79.14,0,0,0,3.7-8.4c.8,1,5.8,6,5.8,5.6C98,138,97.79,135.6,97.59,133.1Z"/><polygon class="cls-10" points="140.69 185 181.29 185 188.99 127.6 148.39 127.6 140.69 185"/><polygon class="cls-2" points="142.69 185 183.29 185 190.99 127.6 150.39 127.6 142.69 185"/><path class="cls-5" d="M170.79,153.5a4.51,4.51,0,0,1-4.3,4,3.5,3.5,0,0,1-3.6-3.5v-.5a4.35,4.35,0,0,1,4.3-4,3.5,3.5,0,0,1,3.6,3.5Z"/><path class="cls-4" d="M67.59,140.4c-1.9,26.8,2.8,45.2,7.5,47.1,12.7,5.3,51.3,8.3,60.2,7.3,3.5-.4,1.2-29-2.5-29-9.2.2-43,.5-43.4.3-2.9-1.4-3-10.3-9.6-29.3C74.39,121.5,68.39,129.5,67.59,140.4Z"/><path class="cls-4" d="M162.29,160.2a4.06,4.06,0,0,1,0,4.7,6.51,6.51,0,0,1,3.2,2.7c1.1,2.3-1.9,5-1.9,5a7.39,7.39,0,0,1,2.9,3.4c.9,2.3-1.8,5.5-1.8,5.5a6.13,6.13,0,0,1,.6,4.6c-.7,2.7-7.3,6-11.3,7.3s-16.3,1.1-18.7,1.4L127,169.5s16.1-10.7,20.9-11.5C152,157.4,160.39,157.6,162.29,160.2Z"/><path class="cls-7" d="M162,164.6c-4.5-.3-8.9.7-13.3,1.5-.1,0-.1.2,0,.1,4.4-.9,8.9-.8,13.3-1.5.1.1.1,0,0-.1Z"/><path class="cls-7" d="M163.39,172.4a10.47,10.47,0,0,0-3,.5c-1.1.2-2.1.5-3.2.8-2.1.6-4.2,1.2-6.3,1.9h-.1v.1h.1c2.1-.6,4.2-1.1,6.4-1.6,1.1-.2,2.1-.5,3.2-.7a11.14,11.14,0,0,0,3-.8c.1,0,.1-.1.1-.2Z"/><path class="cls-7" d="M164.49,181.7a6.26,6.26,0,0,0-2.7.6l-2.9.8c-1.9.5-3.9,1.1-5.8,1.5-.1,0-.1.2,0,.1,2-.5,4-.9,5.9-1.4,1-.2,1.9-.5,2.9-.7a5.38,5.38,0,0,0,2.6-.9Z"/><path class="cls-6" d="M129.19,164.5v32.2l-2.6-.1h-1.7l-2.1-.1h-.4l-2.9-.2h-.8l-2.9-.2h-.4l-2.9-.2-.8-.1-2.9-.2h-.4l-2.9-.3-.8-.1-2.9-.3h-.5l-2.9-.3-.8-.1-2.9-.4-.4-.3-1.4-.2-1.5-.2-.8-.1h-.3a25.58,25.58,0,0,1-2.7-.5l-.4-.1c-1-.2-2-.4-2.9-.6l-.8-.2c-1-.2-2-.5-2.9-.7l-.4-.1c-1-.3-1.9-.6-2.8-.9h-.2l-.8-.3c-.3-.1-.6-.3-.9-.4a8.17,8.17,0,0,1-2-1.2l-.1-.1-.3-.3a6.42,6.42,0,0,1-1-1.3.52.52,0,0,1-.2-.4,20.87,20.87,0,0,1-1.4-3l-.3-.8-.1-.3c-.3-.8-.5-1.7-.8-2.6v-.1l-.1-.4c-.2-.9-.5-1.9-.7-3,0-.2-.1-.5-.1-.8a26.8,26.8,0,0,1-.5-3c0-.1-.1-.3-.1-.4-.2-1-.3-2-.4-3,0-.2-.1-.5-.1-.8l-.3-3v-.4l-.3-3-.1-.8c-.1-.8-.1-1.5-.2-2.3v-1.1c-.1-1-.1-2-.1-3v-.8c0-1-.1-2-.1-2.9v-4.2a27.15,27.15,0,0,1,.1-2.9v-.4c0-1,.1-2,.1-2.9v-.8c0-.5.1-.9.1-1.4a8.75,8.75,0,0,1,.2-1.6v-.4c.1-.7.2-1.3.3-1.9.1-.4.2-.7.3-1.1a3.09,3.09,0,0,0,.2-.8,11.08,11.08,0,0,1,1.4-2.9l.3-.4.2-.3a2.7,2.7,0,0,1,.8-.7,3.89,3.89,0,0,1,2.9-.9l.4.1a5.94,5.94,0,0,1,2.9,1.8h0l.4.4a1.76,1.76,0,0,1,.4.5,13.25,13.25,0,0,1,1.6,2.5l.4.8c.3.6.6,1.2.9,1.9a10.37,10.37,0,0,1,.4,1h0l.2.4a18.29,18.29,0,0,1,.8,2.5c0,.1.1.3.1.4a4.54,4.54,0,0,1,.2.8l.9,2.9.1.4a12.09,12.09,0,0,1,.5,1.8c.1.4.2.8.3,1.1a2.35,2.35,0,0,1,.2.8,1.07,1.07,0,0,0,.2.6l.7,2.4c0,.1.1.3.1.4.3,1,.6,2,.9,2.9a2.35,2.35,0,0,1,.2.8c.3,1,.6,2,.9,2.9v.1c0,.1.1.3.1.4l.2.7c.3.8.5,1.5.8,2.2l.3.8c.4,1,.8,2,1.3,3,.1.1.2.3.3.4a.31.31,0,0,0,.2.1h.8l2.9-.1h4.1l2.9-.1h.4l2.9-.1h.8l2.9-.1h.4l2.9-.1h.8l2.9-.1h.4l2.9-.1h.8l2.9-.1h.4l2.9-.1h.8Z"/><path class="cls-9" d="M66.49,138.8v19.1c-.1-1-.1-2-.1-3v-.8c0-1-.1-2-.1-2.9V147a27.15,27.15,0,0,1,.1-2.9v-.4c0-1,.1-2,.1-2.9V140A4.82,4.82,0,0,1,66.49,138.8Zm6.6-11v60l.3.3.1.1V127.9Zm-3.7,1.6v50.1a19.75,19.75,0,0,0,.8,2.6V128.7c-.3.2-.5.5-.8.7Zm7.4.7c-.1-.1-.2-.3-.4-.4v60.1l.8.3V130.6a1.76,1.76,0,0,0-.4-.5Zm3.4,5.6v55.4l.4.1V136.8c-.1-.4-.3-.7-.4-1.1Zm7.2,22.6a.6.6,0,0,1-.1-.4v34.7l.4.1V159.1Zm-3.3-10.4a1.88,1.88,0,0,1-.2-.8,4.51,4.51,0,0,0-.3-1.1v45.9l.8.2V148Zm6.5,17.5v27.8l.8.1V165.5Zm3.7-.1v28.5l.4.1V165.4Zm7-.1v29.4h.4V165.2Zm-3.7.1v28.9l.8.1v-29Zm7-.2v29.8l.8.1V165.1Zm3.7-.1v30.3h.4V165.1Zm7-.1v31h.4v-31Zm-3.3,0h-.4v30.6l.8.1V164.9Zm6.6-.1v31.3h.8V164.8Zm3.7-.1v31.7h.4V164.8Zm3.4-.1v31.9h.8v-32Zm-35.4,28.6h.3l.8.1,1.5.2h36.3v-.4Zm34.7,3.3h1.7l2.6.1v-.2Zm-49.4-7c.3.1.6.3.9.4l.8.3h52v-.8Zm-3.7-3.4a.76.76,0,0,1,.2.4h57v-.4Zm-2.6-7,.1.4h59.8v-.4Zm1,3.4.3.8h58.6v-.8Zm-1.8-7.1c0,.3.1.5.1.8h60.5v-.8Zm-.6-3.3a.6.6,0,0,0,.1.4h61.2v-.4ZM67,165v.4h23.3a1.38,1.38,0,0,1-.3-.4Zm44.7,0h0l-2.9.1h-.4l-2.9.1h-.8l-2.9.1h-.5l-2.9.1h30.8V165Zm-44.3,3.4c0,.2.1.5.1.8h61.7v-.8Zm21-7H66.59l.1.8h22Zm-1.1-3.5H66.39v.4h20.9Zm-2.2-7H66.19v.4h19a.6.6,0,0,1-.1-.4Zm1,3.3H66.29v.8h20c-.1-.3-.1-.5-.2-.8Zm-2.2-7H66.09v.8h18c-.1-.3-.1-.6-.2-.8Zm-1-3.4H66.19v.4H83Zm-2.3-7H66.69v.4h14.1Zm1.2,3.4H66.39v.8h15.7a2,2,0,0,1-.3-.8Zm-2.9-7H67.49a1.88,1.88,0,0,0-.2.8h12Zm-2.4-3.4h-7.3l-.3.4h8Z"/><path class="cls-7" d="M129.39,164.6c.1-.2,0-.4-.1-.4h-.2c-5.1-.1-10.1.2-15.2.3s-10.1.2-15.2.4c-2.9.1-8.3.4-8.4.3s-1.6-4.8-1.9-5.8c-.6-1.9-1.3-3.9-2-5.8-.2-.6-.4-1.1-.6-1.7-.1-.4-.1-.8-.2-1.1s-.1-1-.2-1.6c-.1-1-.3-2.1-.5-3.1,0,0-.1-.1-.1,0v.1a17.33,17.33,0,0,1,.3,3.2l.1.8c-1-2.7-1.2-3.1-2.1-5.8v-.1H83v.1c1,3.9,1.5,5.6,2.8,9.4.6,1.9,1.2,3.9,1.9,5.8.3.9,1.8,5.3,2.2,6.2.1.1,5.2-.2,7.7-.2s5.1-.1,7.6-.1l15.2-.4c2.8-.1,5.6-.1,8.4-.2,0,.3.2,2,.2,2.1s.2.1.1,0A17.48,17.48,0,0,1,129.39,164.6Z"/><path class="cls-7" d="M123.49,167.1c0-.1-.1-.1-.2,0-.3,2.2-.4,4.5-.5,6.8s-.2,4.7-.3,7c-.1,4.6-.4,9.3-.2,14,0,.1.1.1.2.1a.1.1,0,0,0,.1-.1c.5-4.6.6-9.2.7-13.9.1-2.3.2-4.6.2-6.9S123.59,169.4,123.49,167.1Z"/><path class="cls-7" d="M129.39,183.6v-1.7h0v-.3m-.1,0v.3h0v.1c-.1,2.4-.4,4.8-.5,7.2s-.1,4.9-.1,7.3c-2.8-.2-5.5-.2-8.3-.3s-5.7-.4-8.6-.6c-5.7-.5-11.4-1-17.1-1.8l-4.8-.7c-1.6-.2-3.3-.4-4.9-.7-.1,0-.1.1,0,.2,1.5.2,2.9.6,4.3.8s2.8.5,4.2.7c2.8.5,5.7.9,8.5,1.2q8.55,1,17.1,1.5l4.9.2c1.6,0,3.2.1,4.9.1a.32.32,0,0,0,.3-.3c0-2.5.1-5.1.2-7.6v-3.7a12.75,12.75,0,0,0-.1-1.9Z"/><path class="cls-4" d="M188.79,144.1c2.6,3.3,8.4,6.9,9.5,9.8a3.57,3.57,0,0,1-1.1,4.1s3.3.8,3.8,3.6c.2,1.4-1.8,3.1-1.8,3.1a4.26,4.26,0,0,1,2.9,3.3c.2,2-1.9,3.4-1.9,3.4s2.2,1.9,1.7,4c-.9,4.3-17.7,8-21.7,2.4-1.9-2.6,2.3-3.3,2.3-3.3s-6.2-.5-7.1-3.9,4.6-4,4.6-4-6.1-.5-6.6-4.2,5-3.5,5-3.5-4.3-1.7-4.1-4.6c.4-4.8,9.8-.7,13.3-2.4Z"/><path class="cls-7" d="M199.79,171.7a29.81,29.81,0,0,1-17.6,2.8c-.2,0-.2-.4,0-.4a61.29,61.29,0,0,0,17.6-2.4Z"/><path class="cls-7" d="M199.19,164.7c.1,0,.1.1,0,.1a28.24,28.24,0,0,1-19.4,1.9c-.2-.1-.4-.4-.1-.3C184.19,167.3,193.89,166.4,199.19,164.7Z"/><path class="cls-7" d="M178,158.6c6.4,1.6,12.6,1,18.9-.5.1,0,.1.1,0,.1-2.9,1.6-7,2.1-10.3,2.3a17.41,17.41,0,0,1-8.7-1.7C177.79,158.7,177.89,158.5,178,158.6Z"/><path class="cls-4" d="M307.29,275.1c-.8,2.3-42,53.4-44.8,54.4-1.1.4-8.9-5.2-18.1-12.2-2-1.5-4-3.1-6.1-4.7-13.5-10.4-27.5-21.8-27.5-21.8l27.4-34.3L265,279.2l5.9,5s24.5-12.5,27.7-13.3S308.19,272.9,307.29,275.1Z"/><path class="cls-5" d="M307.29,275.1c-.8,2.3-42,53.4-44.8,54.4-1.3.4-12.5-7.9-24.2-16.9L265,279.2l5.9,5s24.5-12.5,27.7-13.3S308.19,272.9,307.29,275.1Z"/><path class="cls-6" d="M307.29,275.1c-.8,2.3-42,53.4-44.8,54.4-1.1.4-8.9-5.2-18.1-12.2l26.4-33.1s24.5-12.5,27.7-13.3S308.19,272.9,307.29,275.1Z"/><path class="cls-7" d="M304.69,274.2c-7.1,8.4-35,43-41.4,51.8h0c7.2-8.2,34.8-43,41.5-51.8C305,274.1,304.89,274,304.69,274.2Z"/><path class="cls-7" d="M294.09,272.8a8.9,8.9,0,0,0-2,6.8,8.23,8.23,0,0,0,3,5.6.1.1,0,0,0,.1-.1,10.55,10.55,0,0,1-1.1-12.3Z"/><path class="cls-7" d="M274.39,281.6c-2.8,3.4-4.8,8.4-3.7,12.7,0,.2.3.1.3,0a54.15,54.15,0,0,1,3.9-12.4.25.25,0,0,0-.1-.4C274.59,281.4,274.49,281.5,274.39,281.6Z"/><path class="cls-7" d="M277.59,279.8c-2.8,3.4-4.8,8.4-3.7,12.7,0,.2.3.1.3,0a54.15,54.15,0,0,1,3.9-12.4.25.25,0,0,0-.1-.4C277.79,279.6,277.69,279.7,277.59,279.8Z"/><path class="cls-7" d="M280.79,278c-2.8,3.4-4.8,8.4-3.7,12.7,0,.2.3.1.3,0a54.15,54.15,0,0,1,3.9-12.4.25.25,0,0,0-.1-.4C281,277.8,280.79,277.9,280.79,278Z"/><path class="cls-7" d="M283.89,276.2c-2.8,3.4-4.8,8.4-3.7,12.7,0,.2.3.1.3,0a54.15,54.15,0,0,1,3.9-12.4.25.25,0,0,0-.1-.4c-.2-.1-.3,0-.4.1Z"/><path class="cls-7" d="M256.89,317.3c-3.1,3.9,2.9,8.7,6,4.8S260,313.4,256.89,317.3Z"/><path class="cls-7" d="M268.29,270.6c-2.8.6-3.2,3.9-2.6,6.2A23.11,23.11,0,0,0,272,287a.14.14,0,0,0,.2,0h0a.57.57,0,0,0,.7-.2c0-.1,0-.1.1-.2.3-3.8,1-7.8.1-11.6C272.49,272.7,270.89,270,268.29,270.6Zm3.9,10c-.1,1.9-.3,3.7-.3,5.6a44.75,44.75,0,0,1-3.5-6,28.8,28.8,0,0,1-1.3-3.1c-.5-1.7-.7-7.3,3.3-4.7,2.1,1.5,1.9,6,1.8,8.2Z"/><path class="cls-7" d="M266.39,296.5c2.9-2.6,4.5-6.4,6.4-9.7a.57.57,0,0,0-.2-.7c-.1,0-.1,0-.2-.1s0-.1-.1-.1h0a22.12,22.12,0,0,0-10.9,4.9c-1.8,1.5-3.4,4.5-1.4,6.5S264.69,298,266.39,296.5Zm-3.6.5c-4.8,0-1.5-4.7-.1-5.7a27.5,27.5,0,0,1,2.8-1.9c2-1.2,4.2-2,6.3-3-1,1.6-1.9,3.2-2.9,4.8C267.69,293.1,265.39,297,262.79,297Z"/><path class="cls-8" d="M263.59,274.1l-28.5,38.5-96.4-66.8-9.3-6.5s-2.6,1.8-6.6,4c-5.5,3-13.6,6.9-20.7,7.9-12,1.8-31.9,1.6-42-11.9-8.5-11.4-2.7-31.9-2.7-31.9l14-1.5s29-24.2,49.2-25c8.6-.3,21,6.1,32.5,12.9S263.59,274.1,263.59,274.1Z"/><path class="cls-7" d="M129.39,239.3s-2.6,1.8-6.6,4c-7-8.4-21.8-23.6-22.3-24.1Z"/><path class="cls-7" d="M80.69,198.9c-1.9,1.3-3.7,2.7-5.5,4s-3.7,2.5-5.4,4-3.4,3-5,4.5c-.8.8-1.6,1.5-2.3,2.3a24,24,0,0,0-2.2,2.4c-.1.1.1.2.1.1a24.33,24.33,0,0,0,2.5-2c.9-.7,1.7-1.5,2.6-2.2,1.7-1.4,3.4-2.8,5-4.2s3.2-3,4.8-4.4,3.7-3,5.4-4.5C80.79,198.9,80.79,198.8,80.69,198.9Z"/><path class="cls-7" d="M256.89,272.7a80.23,80.23,0,0,0-5.3,6.3c-1.7,2.2-3.5,4.2-5.2,6.4-3.4,4.3-6.9,8.5-10.2,12.9q-2.85,3.6-5.4,7.2v.2c0,.1.1,0,.2,0h0c3.7-4,7-8.4,10.5-12.6s6.8-8.6,10.2-12.9c1.8-2.4,3.7-4.7,5.4-7.2,0-.2-.1-.3-.2-.3Z"/><path class="cls-7" d="M180.39,212.6c-3.4-3.9-17.9-14.2-27.2-18.9a.1.1,0,0,0-.1.1v.1c9.3,6,24.5,17.2,27.1,18.9C180.39,212.9,180.49,212.7,180.39,212.6Z"/></g><g id="freepik--Stars--inject-348"><polygon class="cls-6" points="140.19 106.7 142.79 111.9 148.49 112.8 144.39 116.8 145.29 122.5 140.19 119.8 135.09 122.5 136.09 116.8 131.89 112.8 137.59 111.9 140.19 106.7"/><polygon class="cls-6" points="159.19 90.1 161.09 94 165.19 94.6 162.19 97.6 162.89 101.9 159.19 99.9 155.49 101.9 156.19 97.6 153.19 94.6 157.39 94 159.19 90.1"/><polygon class="cls-6" points="144.39 65.8 145.59 68.1 148.19 68.5 146.29 70.4 146.79 73 144.39 71.7 142.09 73 142.49 70.4 140.69 68.5 143.29 68.1 144.39 65.8"/><polygon class="cls-6" points="159.19 51.8 160.09 53.6 162.09 53.9 160.69 55.3 160.99 57.3 159.19 56.4 157.49 57.3 157.79 55.3 156.39 53.9 158.39 53.6 159.19 51.8"/></g><g id="freepik--Reviews--inject-348"><rect class="cls-11" x="197.89" y="76.9" width="150.6" height="60.2"/><polygon class="cls-11" points="197.89 137.1 197.89 149 208.69 137.1 197.89 137.1"/><circle class="cls-5" cx="226.69" cy="108.5" r="23.4"/><polygon class="cls-6" points="266.99 88.2 268.69 91.6 272.49 92.2 269.79 94.9 270.39 98.7 266.99 96.9 263.59 98.7 264.19 94.9 261.49 92.2 265.29 91.6 266.99 88.2"/><polygon class="cls-3" points="282.09 88.2 283.79 91.6 287.59 92.2 284.79 94.9 285.49 98.7 282.09 96.9 278.69 98.7 279.29 94.9 276.49 92.2 280.39 91.6 282.09 88.2"/><polygon class="cls-3" points="297.09 88.2 298.79 91.6 302.69 92.2 299.89 94.9 300.49 98.7 297.09 96.9 293.69 98.7 294.39 94.9 291.59 92.2 295.39 91.6 297.09 88.2"/><polygon class="cls-3" points="312.19 88.2 313.89 91.6 317.69 92.2 314.89 94.9 315.59 98.7 312.19 96.9 308.79 98.7 309.39 94.9 306.69 92.2 310.49 91.6 312.19 88.2"/><polygon class="cls-3" points="327.19 88.2 328.89 91.6 332.79 92.2 329.99 94.9 330.69 98.7 327.19 96.9 323.79 98.7 324.49 94.9 321.69 92.2 325.49 91.6 327.19 88.2"/><rect class="cls-7" x="261.49" y="107" width="71.4" height="1.5"/><rect class="cls-5" x="261.49" y="111.6" width="63.6" height="1.5"/><rect class="cls-5" x="261.49" y="116.1" width="52.6" height="1.5"/><rect class="cls-5" x="261.49" y="120.7" width="57.5" height="1.5"/><g class="cls-12"><path class="cls-7" d="M219.49,80.5c-10.9,4.9-13.2,20.2-12.5,41.9.1,3.3,28.1,9.1,41.6-1.1,2.2-1.6-.9-28.3-6.3-35.9C235.69,75.8,226.19,77.4,219.49,80.5Z"/><path class="cls-7" d="M219.19,80.7c-5.7,2.9-9.3,8.6-11,14.6a89.62,89.62,0,0,0-2.2,13.6,52.3,52.3,0,0,0-.2,13.1.1.1,0,0,0,.2,0,112.06,112.06,0,0,1,2.6-24.5c1.4-6.8,4.9-12.8,10.8-16.4C219.69,81,219.49,80.6,219.19,80.7Z"/><path class="cls-7" d="M247,92.8a20.11,20.11,0,0,0-13.6-14.1m0,.1c7.5,2.8,11.7,8.6,13.6,16.2,2.1,8.3,2.9,16.7,3.6,25.1,0,.1.1.1.2.1a.1.1,0,0,0,.1-.1A105.28,105.28,0,0,0,247,92.8Z"/><path class="cls-10" d="M211.49,130.6h0c5,3.4,14.7,9.3,19.9,7.4a11.28,11.28,0,0,0,6.6-6.9,55.84,55.84,0,0,0-6.4-4.4C223.89,121.6,217,124.6,211.49,130.6Z"/><path class="cls-4" d="M218.89,127.7c.4,1.1,6.3,8.2,11.6,7.6,1.7-.2,1-9.6,1-9.6l.1-.7,1.5-9.8-11.8-6.6-1.7-.9s-.2,2.7-.5,6.1v1.1c0,.5-.1,1-.1,1.5s-.1.8-.1,1.2a4.87,4.87,0,0,1-.1,1.2A52.91,52.91,0,0,0,218.89,127.7Z"/><path class="cls-7" d="M219,113.9a19.62,19.62,0,0,0,12.6,11.1l1.5-9.8-11.8-6.6-1.7-.9C219.59,107.8,219.29,110.5,219,113.9Z"/><path class="cls-4" d="M245.29,98.8c2.7,17.3-7.3,20.9-11,21.4-3.4.5-14.3,1.4-18.8-15.5s2-23,9.6-24.7S242.49,81.6,245.29,98.8Z"/><path class="cls-7" d="M242.29,97.8c-.4.1-.8.3-1.1.4a1.67,1.67,0,0,1-1.2.1.67.67,0,0,1-.4-.7,1.89,1.89,0,0,1,1.2-1.1,2.21,2.21,0,0,1,1.6,0,.69.69,0,0,1,.3.9C242.59,97.6,242.39,97.7,242.29,97.8Z"/><path class="cls-7" d="M229.59,98.3a4.87,4.87,0,0,0,1.2.1,1.63,1.63,0,0,0,1.2-.1.66.66,0,0,0,.2-.7,1.56,1.56,0,0,0-1.3-.8,2.22,2.22,0,0,0-1.6.3.56.56,0,0,0-.1.9C229.29,98.2,229.39,98.3,229.59,98.3Z"/><path class="cls-7" d="M232.39,102.3l-.1.1c.2,1.2.2,2.6-.9,3.1v.1C232.69,105.2,232.69,103.4,232.39,102.3Z"/><path class="cls-7" d="M231.19,101.2c-1.9.1-1.6,3.9.1,3.8S232.79,101.1,231.19,101.2Z"/><path class="cls-7" d="M230.39,101.4c-.3.2-.6.6-1,.7s-.8-.3-1.2-.7a.1.1,0,0,0-.1.1c0,.7.4,1.5,1.2,1.5s1.2-.6,1.3-1.4C230.69,101.5,230.59,101.4,230.39,101.4Z"/><path class="cls-7" d="M239.79,101.2a.1.1,0,0,1,.1.1c0,1.2.3,2.6,1.4,2.9v.1C239.89,104.2,239.59,102.4,239.79,101.2Z"/><path class="cls-7" d="M240.79,99.9c1.9-.3,2.3,3.6.5,3.8S239.19,100.2,240.79,99.9Z"/><path class="cls-7" d="M241.59,100.1a2.35,2.35,0,0,0,1,.5c.3,0,.7-.5.9-.9h.1a1.43,1.43,0,0,1-.8,1.7c-.7.2-1.2-.4-1.4-1.1C241.39,100.2,241.39,100,241.59,100.1Z"/><path class="cls-7" d="M233.59,111.4a2.29,2.29,0,0,0,1,.7,3.08,3.08,0,0,0,1.3-.3m0,0a1.68,1.68,0,0,1-1.5.7,1.28,1.28,0,0,1-1-1c0-.1.1-.1.2-.1Z"/><path class="cls-7" d="M238.19,106.7s.4,1.8.5,2.6a13.11,13.11,0,0,0-5.2.7c-.1,0-.3-.1,0-.3a8.13,8.13,0,0,1,4.5-1.1c0-.2-.7-2.8-.6-2.8a5.82,5.82,0,0,1,1.9.3c-.7-3.7-2-7.2-2.7-10.9,0-.1,0-.1.1-.1s.1,0,.1.1a64.56,64.56,0,0,1,3.4,11.6C240.29,107.3,238.59,106.8,238.19,106.7Z"/><path class="cls-7" d="M215.49,104.7c1.9-.3,6.3-5.8,5.7-14.9,0,0,0,8.2-.5,9.4s2.5-3.1,2.1-10.4a28.17,28.17,0,0,0,7.8,3.3c3.5.7,5.6.5,5.9.2s-5-1.5-6.5-2.9c0,0,9.5,3.5,13.8,3.5.5,0-.1-9.1-7-12.8s-16.5.7-19.1,3.6c0,0-3.2.7-6.4,5.9S213.49,105,215.49,104.7Z"/><path class="cls-4" d="M219.59,106.2s-4.2-5.2-6.6-3.6,1,9.2,4,10.1a2.93,2.93,0,0,0,3.8-1.8h0Z"/><path class="cls-7" d="M214,104.8c2.1.7,3.3,2.5,4.2,4.4a1.6,1.6,0,0,0-2.2-.4l-.2.2v.1h.1a1.71,1.71,0,0,1,2,.5,9.06,9.06,0,0,1,1.1,1.6.21.21,0,0,0,.4-.1h0c-.3-2.8-2.6-6.3-5.4-6.3Z"/></g><rect class="cls-11" x="207.89" width="150.6" height="60.2"/><polygon class="cls-11" points="207.89 60.2 207.89 72.2 218.69 60.2 207.89 60.2"/><circle class="cls-5" cx="236.69" cy="31.6" r="23.4"/><polygon class="cls-6" points="276.99 12 278.69 15.4 282.59 16 279.79 18.7 280.39 22.5 276.99 20.7 273.59 22.5 274.29 18.7 271.49 16 275.29 15.4 276.99 12"/><polygon class="cls-6" points="292.09 12 293.79 15.4 297.69 16 294.89 18.7 295.49 22.5 292.09 20.7 288.69 22.5 289.29 18.7 286.59 16 290.39 15.4 292.09 12"/><polygon class="cls-6" points="307.19 12 308.89 15.4 312.69 16 309.99 18.7 310.59 22.5 307.19 20.7 303.79 22.5 304.39 18.7 301.69 16 305.49 15.4 307.19 12"/><polygon class="cls-3" points="322.29 12 323.99 15.4 327.79 16 325.09 18.7 325.69 22.5 322.29 20.7 318.79 22.5 319.49 18.7 316.69 16 320.59 15.4 322.29 12"/><polygon class="cls-3" points="337.39 12 339.09 15.4 342.89 16 340.09 18.7 340.79 22.5 337.39 20.7 333.89 22.5 334.59 18.7 331.79 16 335.69 15.4 337.39 12"/><rect class="cls-7" x="271.49" y="30.1" width="71.4" height="1.5"/><rect class="cls-5" x="271.49" y="34.7" width="41.8" height="1.5"/><rect class="cls-5" x="271.49" y="39.2" width="61.7" height="1.5"/><rect class="cls-5" x="271.49" y="43.8" width="56.4" height="1.5"/><g class="cls-13"><path class="cls-6" d="M243.39,47.1l-2.1,9.4-14.2-9.7-3.5,5.2s9.3,12.5,19.1,12.5c5.2,0,6.2-11.9,6.2-11.9Z"/><path class="cls-14" d="M241.09,57.8c-3.8,1.2-10.9-4.3-13.8-8.9-.2-.3.1-3.8.2-8.1a73,73,0,0,0-.1-8.1c0-.5,1.9.3,1.9.3l3.5.6,11.5,2a44,44,0,0,0-.9,10.2,4.25,4.25,0,0,0,.2,1.1v.2C243.89,49.1,244.79,56.7,241.09,57.8Z"/><path class="cls-7" d="M243.39,46.9v.2a9.85,9.85,0,0,1-1.7.2c-11.1.5-13.5-13.5-13.5-13.5l4.4-.1,11.5,2a44,44,0,0,0-.9,10.2A3,3,0,0,0,243.39,46.9Z"/><path class="cls-14" d="M225.89,11.7c-2,5.8.3,22.9,4.4,26.8,5.8,5.7,15.7,6.7,20.7-.4,4.8-6.9,1.3-29.1-3.2-32.7C241.09.1,228.89,3.2,225.89,11.7Z"/><path class="cls-7" d="M242.29,23.6c0-.1-.1.1-.1.1.2,1.1.2,2.5-.8,3v.1C242.69,26.4,242.69,24.6,242.29,23.6Z"/><path class="cls-7" d="M241.09,22.5c-1.9.1-1.5,3.8.2,3.7S242.69,22.4,241.09,22.5Z"/><path class="cls-7" d="M249,23.1a.1.1,0,0,1,.1.1c.1,1.2.4,2.5,1.4,2.8m.1,0c-1.3-.1-1.7-1.8-1.5-2.9Z"/><path class="cls-7" d="M249.89,21.8c1.9-.3,2.4,3.4.6,3.7S248.39,22.1,249.89,21.8Z"/><path class="cls-7" d="M239.49,20.9c.5-.2.9-.4,1.4-.6a3,3,0,0,0,1.3-.9.65.65,0,0,0-.2-.9,1.82,1.82,0,0,0-2,0,2.94,2.94,0,0,0-1.5,1.4A.81.81,0,0,0,239,21,1.09,1.09,0,0,0,239.49,20.9Z"/><path class="cls-7" d="M251.19,19.8c-.5,0-1-.2-1.5-.2a2,2,0,0,1-1.5-.6.91.91,0,0,1,0-1,2.21,2.21,0,0,1,1.9-.6,3.38,3.38,0,0,1,1.9.9.91.91,0,0,1-.8,1.5Z"/><path class="cls-7" d="M242.29,34.4c.3.2.6.6,1,.6a2.84,2.84,0,0,0,1.2-.4m.1,0a1.6,1.6,0,0,1-1.4.8,1.17,1.17,0,0,1-1-.9.1.1,0,0,1,.1-.1Z"/><path class="cls-7" d="M243,31.3c1.2,1,5.1,1,5.1.8l-.3-2.8c.3.1,2.1.7,2,.3a61,61,0,0,0-2.7-11.8.1.1,0,0,0-.2,0c.4,3.7,1.5,7.3,2,11a12.86,12.86,0,0,0-1.9-.4c-.1.1.5,2.6.5,3a10,10,0,0,1-4.2-.6C242.79,30.8,242.69,31.1,243,31.3Z"/><path class="cls-7" d="M228,25.5c1.5-.4,2.8-5.2,2.9-9.8,0-3,1.2-6.8,4.6-7.9,2.2-.8,6.1,1.1,8.3.5s2.6-1.8,3.9-1.8,2.8,3.2,2.8,3.2-2.3-10.1-15.3-6.9c-13.7,3.4-10.9,15.2-9.6,18.9C226.39,24.9,228,25.5,228,25.5Z"/><path class="cls-14" d="M228.89,25.7s-3.7-5.6-6.2-4.3.2,9.3,3.1,10.5a3,3,0,0,0,4-1.5h0Z"/><path class="cls-7" d="M223.49,23.9a7.66,7.66,0,0,1,3.8,4.8,1.53,1.53,0,0,0-2.2-.6c-.1,0-.1.1-.2.1v.1h0a1.91,1.91,0,0,1,2,.7,6.47,6.47,0,0,1,.9,1.6.21.21,0,0,0,.4-.1v-.1c.1-2.6-1.9-6.3-4.7-6.5Z"/></g></g></svg>